<svg width="274" height="61" viewBox="0 0 274 61" fill="none" xmlns="http://www.w3.org/2000/svg">
<path d="M68.4141 45.4494V5.05762H93.3324V10.1242H73.5747V22.5402H91.3157V27.6023H73.5747V40.2597H94.7165V45.3218H68.4141V45.4494ZM120.891 45.4494L112.329 34.7193L103.777 45.4494H97.7368L109.437 31.1015L97.1089 16.2753H103.91L112.329 27.3654L120.891 16.2753H127.559L115.858 31.1015L126.931 45.4494H120.891ZM135.236 41.1072V61.0001H130.075V31.2246C130.075 23.6292 136.116 15.5508 145.557 15.5508C155.117 15.5508 162.294 21.3373 162.294 30.8601C162.294 40.1458 154.993 46.5338 146.689 46.5338C142.66 46.5338 137.252 44.848 135.236 41.1118V41.1072ZM156.882 30.8601C156.882 24.3536 152.477 20.4944 144.677 20.8544C140.9 20.9774 135.112 23.6292 135.616 32.9104C135.74 35.9267 139.012 41.5902 146.185 41.5902C152.354 41.5902 156.886 38.2185 156.886 30.8601H156.882ZM166.694 45.4494V16.2753H171.859V19.41C174.375 16.6352 178.276 15.6738 182.428 15.6738V20.9774C181.8 20.8544 175.631 20.1345 171.859 27.8483V45.5724H166.694V45.4494ZM183.817 30.8601C183.817 22.4218 190.104 15.5508 198.79 15.5508C209.61 15.5508 213.639 22.4218 213.639 31.2246V33.6349H189.477C189.857 39.1799 195.013 42.0732 199.798 41.9547C203.318 41.8317 205.71 40.8657 208.226 38.4554L211.622 41.8317C208.478 44.7249 204.45 46.6523 199.541 46.6523C190.357 46.5338 183.812 40.0228 183.812 30.8601H183.817ZM198.409 20.4944C193.501 20.4944 189.729 24.5951 189.477 29.0512H208.226C208.226 24.7136 204.954 20.4944 198.409 20.4944ZM216.279 41.3487L220.055 38.0955C219.931 38.0955 221.943 40.0228 222.195 40.1458C223.075 40.8657 223.955 41.3487 225.087 41.5902C228.36 42.4331 234.276 42.1916 234.781 37.854C235.033 35.4392 233.144 34.1178 231.004 33.2749C228.236 32.309 225.216 31.9445 222.443 30.7416C219.304 29.4157 217.287 27.1239 217.287 23.7476C217.287 14.9494 230.376 13.5005 236.288 17.5966C236.54 17.8427 239.437 20.376 239.309 20.376L235.537 23.2647C233.649 21.0959 231.884 20.0115 227.86 20.0115C225.843 20.0115 223.075 20.8544 222.571 22.9047C221.82 25.798 225.216 26.8824 227.48 27.4884C230.5 28.2083 233.772 28.6912 236.417 30.2586C240.065 32.4274 240.945 37.1296 239.561 40.7473C238.053 44.7249 233.52 46.2923 229.496 46.4108C224.711 46.6523 220.559 45.2079 217.163 41.9547C216.911 41.9547 216.279 41.3487 216.279 41.3487ZM242.833 41.3487L246.61 38.0955C246.481 38.0955 248.498 40.0228 248.75 40.1458C249.63 40.8657 250.51 41.3487 251.642 41.5902C254.914 42.4331 260.831 42.1916 261.33 37.854C261.582 35.4392 259.699 34.1178 257.559 33.2749C254.79 32.309 251.77 31.9445 248.997 30.7416C245.858 29.4157 243.841 27.1239 243.841 23.7476C243.841 14.9494 256.926 13.5005 262.843 17.5966C263.095 17.8427 265.987 20.376 265.863 20.376L262.087 23.2647C260.198 21.0959 258.439 20.0115 254.41 20.0115C252.398 20.0115 249.63 20.8544 249.126 22.9047C248.369 25.798 251.77 26.8824 254.034 27.4884C257.054 28.2083 260.327 28.6912 262.967 30.2586C266.619 32.4274 267.499 37.1296 266.115 40.7473C264.603 44.7249 260.075 46.2923 256.046 46.4108C251.266 46.6523 247.114 45.2079 243.713 41.9547C243.461 41.9547 242.833 41.3487 242.833 41.3487ZM267.371 16.2753V13.1405H266.239V12.5391H269.259V13.1405H268.127V16.2753H267.371ZM273.036 16.2753V13.382L271.904 16.2753H271.652L270.52 13.382V16.2753H269.892V12.5391H270.895L271.904 15.0679L272.912 12.5391H273.916V16.2753H273.036Z" fill="white"/>
<path d="M33.4286 45.4493L29.6568 35.8036H9.26173L5.48997 45.4493H0.0820312L16.4438 5.05751H22.3559L38.5892 45.4447L33.4286 45.4493ZM19.2072 10.844L11.54 30.8599H27.5212L19.2072 10.844ZM41.9852 45.4493V5.05751H47.2742V45.4447L41.9852 45.4493ZM55.203 45.4493V16.8812H60.4873V45.4493H55.203ZM65.5195 7.59538V7.3539V7.11241C63.5727 7.04664 61.7243 6.27605 60.3473 4.95608C58.9703 3.63611 58.167 1.865 58.0996 0L57.3386 0C57.2712 1.865 56.468 3.63611 55.0909 4.95608C53.7139 6.27605 51.8656 7.04664 49.9187 7.11241V7.59538C51.8648 7.66109 53.7124 8.43105 55.0894 9.75005C56.4663 11.0691 57.27 12.839 57.3386 14.7032H58.0996C58.1682 12.839 58.972 11.0691 60.3489 9.75005C61.7258 8.43105 63.5734 7.66109 65.5195 7.59538Z" fill="#CFB283"/>
</svg>
