<svg width="274" height="83" viewBox="0 0 274 83" fill="none" xmlns="http://www.w3.org/2000/svg">
<path fill-rule="evenodd" clip-rule="evenodd" d="M169.977 64.7217C154.114 76.4893 131.04 82.7589 111.139 82.7589C83.2582 82.7589 58.2617 72.4381 39.2259 55.269C37.7838 53.9186 39.0337 52.0859 40.8603 53.147C61.3382 65.1075 86.6231 72.2452 112.773 72.2452C130.367 72.2452 149.787 68.5799 167.669 60.9599C170.361 59.8989 172.573 62.7926 169.977 64.7217Z" fill="#CFB283"/>
<path fill-rule="evenodd" clip-rule="evenodd" d="M176.614 57.1019C174.595 54.4976 163.154 55.848 158.058 56.5232C156.52 56.7161 156.232 55.3657 157.674 54.4011C166.807 47.9386 181.709 49.8677 183.439 51.9897C185.17 54.1117 182.959 69.1589 174.402 76.2966C173.056 77.3576 171.807 76.7789 172.383 75.3321C174.306 70.5093 178.632 59.8026 176.614 57.1019Z" fill="#CFB283"/>
<path fill-rule="evenodd" clip-rule="evenodd" d="M158.343 9.06687L158.343 2.79723C158.343 1.83267 159.016 1.25393 159.881 1.25393L187.762 1.25393C188.627 1.25393 189.396 1.92913 189.396 2.79723L189.396 8.10231C189.396 8.97041 188.627 10.1279 187.281 12.057L172.86 32.6986C178.244 32.6021 183.916 33.3738 188.723 36.0745C189.781 36.6533 190.069 37.6178 190.166 38.4859L190.166 45.1414C190.166 46.106 189.204 47.167 188.147 46.5882C179.59 42.0548 168.149 41.5725 158.728 46.6847C157.766 47.167 156.709 46.2024 156.709 45.2379L156.709 38.8718C156.709 37.9072 156.709 36.171 157.766 34.6277L174.495 10.6102L159.978 10.6102C159.112 10.6102 158.343 9.93497 158.343 9.06687ZM56.7228 47.9386L48.2624 47.9386C47.4933 47.8421 46.8204 47.2634 46.7242 46.4918L46.7242 2.89368C46.7242 2.02558 47.4933 1.35038 48.3586 1.35038L56.2421 1.35038C57.1074 1.35038 57.6842 2.02557 57.7804 2.79722L57.7804 8.48812L57.9726 8.48812C59.9916 2.99013 63.9333 0.385824 69.1249 0.385824C74.4126 0.385824 77.7775 2.99013 80.0849 8.48812C82.1039 2.99013 86.8147 0.385826 91.814 0.385826C95.3712 0.385826 99.2169 1.83267 101.62 5.20862C104.312 8.87395 103.735 14.179 103.735 18.9054L103.735 46.4918C103.735 47.3599 102.966 48.0351 102.101 48.0351L93.7368 48.0351C92.8716 47.9386 92.1986 47.2634 92.1986 46.4918L92.1986 23.3423C92.1986 21.5097 92.3909 16.8798 92.0063 15.1436C91.3333 12.2499 89.5067 11.3818 87.007 11.3818C84.9881 11.3818 82.7768 12.7322 81.9116 14.9507C81.0463 17.1692 81.1424 20.8345 81.1424 23.3423L81.1424 46.4918C81.1424 47.3599 80.3733 48.0351 79.5081 48.0351L71.0477 48.0351C70.1824 47.9386 69.5095 47.2634 69.5095 46.4918L69.5095 23.3423C69.5095 18.5195 70.2786 11.2853 64.3179 11.2853C58.261 11.2853 58.4533 18.2302 58.4533 23.3423L58.4533 46.4918C58.3572 47.2634 57.6842 47.9386 56.7228 47.9386ZM213.432 0.385837C226.026 0.385838 232.852 11.1889 232.852 24.9821C232.852 38.293 225.353 48.9032 213.432 48.9032C201.126 48.9032 194.396 38.1001 194.396 24.5963C194.3 10.996 201.126 0.385836 213.432 0.385837ZM213.432 9.35623C207.182 9.35623 206.798 17.9408 206.798 23.2459C206.798 28.551 206.702 39.9328 213.335 39.9328C219.873 39.9328 220.258 30.7695 220.258 25.175C220.258 21.5097 220.065 17.0727 219.008 13.6003C218.046 10.5137 216.124 9.35623 213.432 9.35623ZM249.1 47.9386L240.639 47.9386C239.774 47.8422 239.101 47.167 239.101 46.3953L239.101 2.70078C239.197 1.92913 239.87 1.25394 240.735 1.25394L248.619 1.25394C249.388 1.25394 249.965 1.83269 250.157 2.50788L250.157 9.16334L250.349 9.16334C252.753 3.18307 256.022 0.38584 261.886 0.385841C265.636 0.385841 269.385 1.73621 271.789 5.498C274 8.97041 274 14.8542 274 19.0983L274 46.5882C273.904 47.3599 273.231 47.9386 272.366 47.9386L263.905 47.9386C263.136 47.8422 262.463 47.2634 262.367 46.5882L262.367 22.8601C262.367 18.0373 262.944 11.0925 257.079 11.0925C255.06 11.0925 253.138 12.4428 252.176 14.5649C251.022 17.2656 250.83 19.8699 250.83 22.8601L250.83 46.3953C250.734 47.2634 249.965 47.9386 249.1 47.9386ZM136.135 27.1041C136.135 30.3836 136.231 33.1809 134.596 36.171C133.251 38.5824 131.135 40.0292 128.732 40.0292C125.463 40.0292 123.54 37.5214 123.54 33.8561C123.54 26.6219 129.982 25.2715 136.135 25.2715L136.135 27.1041ZM144.691 47.8422C144.114 48.3245 143.345 48.4209 142.672 48.0351C139.884 45.7201 139.307 44.5627 137.769 42.3442C133.154 47.0705 129.789 48.5173 123.829 48.5173C116.714 48.5173 111.138 44.0804 111.138 35.3029C111.138 28.3581 114.888 23.7282 120.175 21.4132C124.79 19.3876 131.232 19.0018 136.135 18.4231L136.135 17.3621C136.135 15.3365 136.327 12.9251 135.077 11.1889C134.02 9.64561 132.097 8.9704 130.366 8.9704C127.098 8.9704 124.213 10.6102 123.54 14.0826C123.348 14.8542 122.867 15.6259 122.098 15.6259L113.926 14.7578C113.253 14.5648 112.484 14.0826 112.676 13.0216C114.599 2.99014 123.54 1.08002e-05 131.616 1.15062e-05C135.75 1.18677e-05 141.134 1.06102 144.403 4.24407C148.537 8.10231 148.152 13.3109 148.152 18.9054L148.152 32.1198C148.152 36.0745 149.787 37.8107 151.325 40.0292C151.902 40.8009 151.998 41.7654 151.325 42.2477C149.498 43.6945 146.422 46.3953 144.691 47.8422ZM25.0926 27.1041C25.0926 30.3836 25.1888 33.1808 23.5544 36.171C22.2084 38.5824 20.0933 40.0292 17.6898 40.0292C14.421 40.0292 12.4982 37.5214 12.4982 33.856C12.4982 26.6219 18.9397 25.2714 25.0926 25.2714L25.0926 27.1041ZM33.553 47.8422C32.9761 48.3244 32.207 48.4209 31.534 48.0351C28.746 45.7201 28.1691 44.5626 26.6309 42.3442C22.0161 47.0705 18.6512 48.5173 12.6905 48.5173C5.57613 48.5173 -3.85363e-06 44.0804 -3.08628e-06 35.3029C-2.47914e-06 28.3581 3.74947 23.7281 9.03718 21.4132C13.6519 19.3876 20.0933 19.0018 24.9965 18.4231L24.9965 17.3621C24.9965 15.3365 25.1888 12.9251 23.9389 11.1889C22.8814 9.6456 20.9586 8.97039 19.2281 8.97039C15.9593 8.97039 13.0751 10.6102 12.4021 14.0826C12.2098 14.8542 11.7291 15.6258 10.96 15.6258L2.78806 14.7577C2.11508 14.5648 1.34597 14.0826 1.53825 13.0216C3.46106 2.99014 12.4021 1.08423e-06 20.4779 1.79023e-06C24.6119 2.15164e-06 29.9958 1.06101 33.2646 4.24406C37.3986 8.1023 37.014 13.3109 37.014 18.9054L37.014 32.1198C37.014 36.0745 38.6484 37.8107 40.1867 40.0292C40.7635 40.8009 40.8596 41.7654 40.1867 42.2477C38.36 43.6945 35.2835 46.3953 33.553 47.8422Z" fill="white"/>
</svg>
