<svg width="219" height="88" viewBox="0 0 219 88" fill="none" xmlns="http://www.w3.org/2000/svg">
<path d="M28.1895 19.207C12.8131 19.207 0 25.7763 0 45.5983C0 61.3015 8.61602 71.1898 28.5858 71.1898C52.0917 71.1898 53.5983 55.595 53.5983 55.595H42.209C42.209 55.595 39.7672 63.9922 27.8913 63.9922C18.2188 63.9922 11.2621 57.4112 11.2621 48.1879H54.7901V42.3993C54.7901 33.2742 49.0384 19.207 28.1895 19.207ZM27.7917 26.6046C36.9989 26.6046 43.2757 32.2855 43.2757 40.7999H11.5137C11.5137 31.7604 19.7073 26.6046 27.7917 26.6046Z" fill="white"/>
<path d="M54.7817 0.0126953V61.2356C54.7817 64.7107 54.5352 69.5904 54.5352 69.5904H65.3981C65.3981 69.5904 65.7885 66.086 65.7885 62.8827C65.7885 62.8827 71.1557 71.34 85.7496 71.34C101.117 71.34 111.556 60.5933 111.556 45.1984C111.556 30.8757 101.968 19.3565 85.7743 19.3565C70.6103 19.3565 65.8984 27.6035 65.8984 27.6035V0.0126953H54.7817ZM82.9704 26.929C93.4065 26.929 100.043 34.7301 100.043 45.1984C100.043 56.424 92.3783 63.7674 83.0453 63.7674C71.9068 63.7674 65.8984 55.0077 65.8984 45.298C65.8984 36.2505 71.2895 26.929 82.9704 26.929Z" fill="#CFB283"/>
<path d="M138.556 19.207C115.424 19.207 113.94 31.9632 113.94 34.0021H125.454C125.454 34.0021 126.058 26.5548 137.762 26.5548C145.367 26.5548 151.261 30.0613 151.261 36.8012V39.2004H137.762C119.841 39.2004 110.367 44.4807 110.367 55.1958C110.367 65.7403 119.121 71.4776 130.951 71.4776C147.073 71.4776 152.266 62.5055 152.266 62.5055C152.266 66.0743 152.539 69.5911 152.539 69.5911H162.774C162.774 69.5911 162.378 65.2321 162.378 62.4433V38.3384C162.378 22.5327 149.72 19.207 138.556 19.207ZM151.261 46.398V49.597C151.261 53.7692 148.704 64.1423 133.655 64.1423C125.414 64.1423 121.881 60.0001 121.881 55.1951C121.881 46.4544 133.779 46.398 151.261 46.398Z" fill="white"/>
<path d="M156.18 21.208H169.132L187.722 58.7179L206.269 21.208H218.003L184.22 87.9873H171.912L181.66 69.3715L156.18 21.208Z" fill="#CFB283"/>
</svg>
