<svg width="273" height="81" viewBox="0 0 273 81" fill="none" xmlns="http://www.w3.org/2000/svg">
<path fill-rule="evenodd" clip-rule="evenodd" d="M18.8918 3.65628H44.3326C45.9673 3.66457 47.5979 3.81761 49.2056 4.11358C53.015 5.02817 56.8223 7.00839 59.5661 10.0542C61.3932 11.8834 62.7651 14.0168 63.5265 16.6053L63.9838 16.4543H64.1348C64.7453 16.3012 64.8984 16.3012 66.2682 15.997C70.0776 15.0803 74.7995 13.8637 80.8933 13.8637C84.1196 13.7067 87.3517 14.0147 90.4902 14.7782C93.5361 15.3866 96.433 16.4543 98.7174 18.1304L98.2601 15.0824H125.071L125.681 20.5679L126.138 25.1366L130.556 17.9751L132.385 15.0803H149.144L150.665 8.37818L151.734 3.65628H182.048C183.573 3.65628 185.096 3.80941 186.772 4.11358C190.731 5.02817 194.389 7.00839 197.282 10.0542C199.036 11.9446 200.384 14.174 201.244 16.6053L201.704 16.4543H201.855C202.314 16.3012 202.465 16.3012 203.833 15.997C207.642 15.0803 212.519 13.8637 218.46 13.8637C221.735 13.7135 225.016 14.0214 228.206 14.7782C231.864 15.5397 235.216 17.0626 237.805 19.347C238.876 20.2682 239.8 21.3468 240.547 22.546L244.509 4.72191L245.575 0H273L271.32 7.46569L259.134 61.2421L258.064 65.964H210.843C209.773 66.2703 208.557 66.5724 207.336 66.5724C203.984 66.8765 200.634 66.5724 197.741 65.3536C194.238 63.9838 191.341 61.6973 189.665 58.1942C188.144 54.9952 187.534 50.8837 188.448 46.0066C184.335 48.291 179.611 49.3587 174.432 49.3587H168.793L166.051 61.2421L164.986 65.964H137.716L139.392 58.6515L142.44 44.7878L121.721 77.237L120.045 80.1318H89.5778L95.8226 70.6859L104.811 56.9754L102.678 43.5691L98.7174 61.2421L97.6518 65.964H73.2787C72.0578 66.2703 70.9943 66.5724 69.7755 66.5724C66.4234 66.8765 63.0713 66.5724 60.0255 65.3536C56.6734 63.9838 53.7785 61.6973 52.1046 58.1942C50.4285 54.9952 49.8202 50.8837 50.7348 46.0066C46.6212 48.291 41.8993 49.3587 36.8711 49.3587H31.0815L28.493 61.2421L27.4273 65.964H0L1.67606 58.6515L12.9491 8.37818L14.0147 3.65628H18.8918Z" fill="#CFB283"/>
<path fill-rule="evenodd" clip-rule="evenodd" d="M18.8902 9.75003H44.331C51.7946 9.75003 60.4769 15.0824 57.8884 26.8127C55.604 37.1732 47.0706 43.2649 36.8653 43.2649H26.2027L22.5465 59.8702H7.61719L18.8902 9.75003ZM202.917 22.3949C206.879 21.6335 212.056 19.9574 218.607 19.9574C228.202 19.8064 238.716 22.546 236.278 33.6679L230.338 59.8702H216.629L217.544 55.9097C210.078 63.0692 191.339 63.5265 194.387 47.0722C196.523 37.4752 206.879 34.4294 222.264 34.4294C223.333 30.1627 220.285 29.097 215.106 29.2502C209.927 29.4033 203.68 31.0794 201.7 31.9919L202.917 22.3949ZM208.555 46.4638C206.577 49.5118 209.317 52.1024 212.365 51.9493C215.868 51.7962 218.76 50.2732 219.522 46.7701C219.826 45.5513 219.981 44.4857 220.283 43.267H216.931C214.343 43.2649 210.078 43.8753 208.555 46.4638ZM65.3541 22.3949L64.1353 31.9919C65.9645 31.0773 72.2114 29.4033 77.3885 29.2502C82.5698 29.097 85.6157 30.1648 84.7011 34.4294C69.3145 34.4294 58.9561 37.4752 56.8207 47.0722C53.7727 63.5265 72.5114 63.0692 79.8239 55.9097L78.9115 59.8702H92.773L98.7158 33.6679C101.153 22.546 90.4886 19.8064 80.8917 19.9574C74.3427 19.9574 69.1614 21.6314 65.3541 22.3949ZM70.9906 46.4638C72.5135 43.8753 76.7781 43.2649 79.2177 43.2649H82.7209C82.4167 44.4836 82.1104 45.5513 81.9594 46.768C81.1979 50.2711 78.15 51.7941 74.6489 51.9472C71.601 52.1003 69.0103 49.5097 70.9906 46.4638ZM105.42 21.1762H119.586L121.872 43.2649L135.736 21.1762H150.361L116.693 74.038H100.849L111.208 58.4983L105.42 21.1762ZM250.446 6.09375L238.414 59.8702H253.192L265.377 6.09375H250.446ZM156.608 9.75003L145.333 59.8702H160.111L163.916 43.2649H174.43C184.79 43.2649 193.322 37.1732 195.604 26.8127C198.197 15.0824 189.359 9.75003 182.047 9.75003H156.608ZM169.1 19.9574H176.408C180.217 19.9574 182.504 23.0053 181.591 26.8127C180.673 30.6221 176.716 33.6679 172.905 33.6679H166.052L169.1 19.9574ZM31.5351 19.9574L28.3361 33.6679H35.3445C39.1539 33.6679 42.9612 30.6221 43.8758 26.8127C44.9414 23.0053 42.506 19.9574 38.8497 19.9574H31.5351Z" fill="white"/>
</svg>
