<svg width="275" height="76" viewBox="0 0 275 76" fill="none" xmlns="http://www.w3.org/2000/svg">
<path fill-rule="evenodd" clip-rule="evenodd" d="M51.437 18.8147H35.2289L25.7302 41.272L16.2315 18.8147H0.0234375C5.91112 32.7344 11.7965 46.6564 17.6865 60.5745L11.162 75.9996H27.37C35.4752 56.8368 43.3844 37.8528 51.437 18.8147ZM257.534 0.119372H274.977L259.204 37.9541H241.761L257.534 0.119372ZM246.048 41.6028C251.479 41.6028 255.883 45.9735 255.883 51.3652C255.883 56.7569 251.48 61.1276 246.048 61.1276C240.617 61.1276 236.214 56.7569 236.214 51.3652C236.214 45.9739 240.617 41.6028 246.048 41.6028ZM211.752 17.6789C223.965 17.6789 233.866 27.5077 233.866 39.6319C233.866 51.7564 223.965 61.5848 211.752 61.5848C199.538 61.5848 189.637 51.756 189.637 39.6319C189.637 27.5074 199.538 17.6789 211.752 17.6789ZM211.752 31.0601C216.521 31.0601 220.387 34.8981 220.387 39.6323C220.387 44.3664 216.521 48.2044 211.752 48.2044C206.983 48.2044 203.116 44.3664 203.116 39.6323C203.116 34.8981 206.983 31.0601 211.752 31.0601ZM164.275 17.6789C176.489 17.6789 186.389 27.5077 186.389 39.6319C186.389 51.7564 176.488 61.5848 164.275 61.5848C152.061 61.5848 142.16 51.756 142.16 39.6319C142.16 27.5074 152.061 17.6789 164.275 17.6789ZM164.275 31.0601C169.044 31.0601 172.91 34.8981 172.91 39.6323C172.91 44.3664 169.044 48.2044 164.275 48.2044C159.506 48.2044 155.639 44.3664 155.639 39.6323C155.639 34.8981 159.506 31.0601 164.275 31.0601ZM98.9854 0H113.609V22.5686C113.609 22.5686 116.168 17.6789 124.62 17.6789C133.071 17.6789 138.492 21.3703 138.6 36.4852V61.1276H123.976V36.4852C123.976 33.6433 121.655 31.3395 118.793 31.3395C115.864 31.3395 113.538 33.7301 113.611 36.6311L113.609 61.1276H98.985L98.9854 0ZM79.0728 18.8147H93.6967V61.128H79.0728V57.1392C75.7978 59.9289 71.7166 61.5856 67.2908 61.5856C56.5061 61.5856 47.7633 51.7568 47.7633 39.6326C47.7633 27.5081 56.5061 17.6797 67.2908 17.6797C71.7166 17.6797 75.7982 19.336 79.0728 22.126V18.8147ZM70.8357 31.0601C75.6048 31.0601 79.471 34.8981 79.471 39.6323C79.471 44.3664 75.6048 48.2044 70.8357 48.2044C66.0667 48.2044 62.2004 44.3664 62.2004 39.6323C62.2004 34.8981 66.0667 31.0601 70.8357 31.0601Z" fill="white"/>
</svg>
