<svg width="24" height="24" viewBox="0 0 24 24" fill="none" xmlns="http://www.w3.org/2000/svg">
<path d="M6.17599 1.322L9.02 0L13.061 7.89L10.337 9.231C9.79899 10.49 12.496 15.52 13.634 15.603C13.724 15.545 16.305 14.275 16.305 14.275L20.415 22.207C20.415 22.207 17.651 23.561 17.561 23.603C9.699 27.194 -1.54201 5.345 6.17599 1.322ZM8.10499 2.596L7.08199 3.1C1.78799 5.862 11.259 24.285 16.73 21.786L17.701 21.312L15.43 16.929L14.404 17.429C11.241 18.976 6.14199 9.21 9.34899 7.491L10.356 6.994L8.10499 2.596Z" fill="#CFB283"/>
</svg>
