<svg width="43" height="37" viewBox="0 0 43 37" fill="none" xmlns="http://www.w3.org/2000/svg">
<path d="M41.7257 20.6607L43 18.4982L41.7257 16.3364L37.7049 16.5835L0 18.4982L37.7049 20.4136L41.7257 20.6607Z" fill="#CFB283"/>
<path d="M7.79688 15.1593L36.1065 13.8702L40.1205 13.612L38.211 10.3794L34.5148 11.1743L7.79688 15.1593Z" fill="#CFB283"/>
<path d="M38.211 26.6203L40.1172 23.3877L36.1031 23.1301L7.79688 21.8403L34.5148 25.8253L38.211 26.6203Z" fill="#CFB283"/>
<path d="M30.0059 3.53265H12.3479L6.30011 13.7835L1.8125 14.3293L10.2648 0H32.0884L38.2103 10.3796L40.1199 13.6122L36.1058 13.8704L34.5142 11.1745L30.0059 3.53265Z" fill="#CFB283"/>
<path d="M1.8125 22.6675L6.30011 23.2133L12.3486 33.4674H30.0065L34.5148 25.8256L36.1031 23.1303L40.1172 23.3879L38.211 26.6205L32.089 37.0001H10.2654L1.8125 22.6675Z" fill="#CFB283"/>
</svg>
